<?xml version="1.0" encoding="UTF-8" standalone="no"?>
<!-- Created with Inkscape (http://www.inkscape.org/) -->
<svg
   xmlns:svg="http://www.w3.org/2000/svg"
   xmlns="http://www.w3.org/2000/svg"
   version="1.0"
   width="162.5"
   height="162.5"
   id="svg101">
  <defs
     id="defs7" />
  <ellipse
     cx="78.164558"
     cy="73.022156"
     rx="36.511078"
     ry="36.511074"
     transform="matrix(0.74772,0,0,0.74772,23.81826,22.49061)"
     style="font-size:12px;fill:#f0f0f8;fill-opacity:0.19607795;fill-rule:evenodd;stroke:#4a4b4f;stroke-width:8.35873985;stroke-linecap:round;stroke-linejoin:round"
     id="path1233" />
  <path
     d="M 160.554,80.3226 C 146.107,63.3526 126.456,48.9309 97.2541,48.9309 C 117.804,66.5712 117.804,95.6957 98.8593,113.491 C 126.456,113.491 150.783,92.1501 160.554,80.3226 z "
     transform="matrix(0.870861,0,0,0.848077,18.35052,7.499142)"
     style="font-size:12px;fill:#f0f0f8;fill-opacity:0.19607795;fill-rule:evenodd;stroke:#4a4b4f;stroke-width:7.27257013;stroke-linecap:round;stroke-linejoin:round"
     id="path1235" />
  <path
     d="M 160.554,80.3226 C 146.107,63.3526 126.456,48.9309 97.2541,48.9309 C 117.804,66.5712 117.804,95.6957 98.8593,113.491 C 126.456,113.491 150.783,92.1501 160.554,80.3226 z "
     transform="matrix(-0.870861,0,0,0.848077,144.9147,7.499142)"
     style="font-size:12px;fill:#f0f0f8;fill-opacity:0.19607795;fill-rule:evenodd;stroke:#4a4b4f;stroke-width:7.27257013;stroke-linecap:round;stroke-linejoin:round"
     id="path1241" />
  <path
     d="M 8.22785,43.1962 C 29.3117,25.712 134.217,46.7959 153.758,32.9114 C 128.56,39.5965 15.9415,21.0839 8.22785,43.1962 z "
     style="font-size:12px;fill:#4a4b4f;fill-rule:evenodd;stroke:#4a4b4f;stroke-width:1.25;stroke-linecap:round;stroke-linejoin:round"
     id="path1243" />
</svg>
